<?xml version="1.0" encoding="UTF-8"?>
<svg id="Layer_2" data-name="Layer 2" xmlns="http://www.w3.org/2000/svg" viewBox="0 0 587.09 225.73">
  <defs>
    <style>
      .cls-1 {
        fill: #231f20;
        stroke-width: 0px;
      }
    </style>
  </defs>
  <g id="Layer_3" data-name="Layer 3">
    <g>
      <path class="cls-1" d="M34.25,154.72c.35,1.84-.47,3.31-.56,5.19-.29,5.2,5.75,15.3,8.97,20.12,1.24-2.47,2.89-5.67,4.35-8.29,1.23-2.2,2.33-3.92,2.87-4.17,1.75-.67,3.85-.74,5.21.02,1.57.88,2.29,2.79.76,5.78-2.55,5.31-4.67,9.35-7.01,14.78,5.61,7.67,19.57,22.06,26.7,26.03,2.1,1.17,2.84,1.31,3.58,1.72,2.62,1.46,3.98,3.46,2.05,6.92-2.05,3.67-6.06,3.22-8.05,2.1-3.25-1.81-20.48-16.24-29.31-26.53-.83,1.74-1.45,3.59-2.21,4.95-1.23,2.2-2.97,3.84-6.32,1.97-4.61-2.57.88-12.15,2.24-15.1-3.93-5.77-8.59-14.14-11.25-20.71-5.59,10.76-10.39,21.82-15.04,33.11-.84,2-1.26,3-1.62,3.63-1.4,2.52-5.15,3.31-7.77,1.85-1.05-.58-1.86-1.59-1.85-3.09.16-4.72,9.71-24.54,17.84-39.1,4.91-8.8,9.25-15.59,10.72-16,0,0,1.46-.15,2.82.61,1.26.7,2.4,1.61,2.87,4.21Z"/>
      <path class="cls-1" d="M105.99,116.9c-2.35,2.06-4.54,3.95-6.56,6.01-1.17,1.2-2.27,2.48-3.35,3.77,6.11,8,19.18,24.66,20.46,25.92,1.96.57,3.75,1.66,5.12,3,2.06,2.02,2.85,4.64.5,7.04-2.69,2.74-7.42,4.15-10.6,1.04-1.11-1.09-1.89-2.36-2.5-3.45-.43-.93-9.89-12.88-19.35-25.34-8.2,10.95-13.79,20.59-17.4,24.28-2.02,2.06-5.91,2.95-8.31.6-.69-.67-1.12-1.6-.96-2.79,1.27-16.56-.82-21.97-6.77-39.05-1.14-3.3-3.58-9.55-3.87-12.86-.1-1.27.31-2.38.99-3.07,1.93-1.97,6.43-1.59,8.92.84.77.76,1.46,1.77,1.64,2.95,2.43,13.47,8.04,22.66,8.44,36.83,4.18-5.81,7.02-10.43,11.3-15.48-7.83-10.19-13.94-18.52-13.94-18.52-1.98-2.61-3.63-6.24-1.53-8.38,2.18-2.23,6.85-1.85,8.83.08.77.75,2.75,3.71,3.88,5.65,2.94,4.89,6.37,9.27,9.82,13.81,2.94-2.83,6.14-5.58,9.51-7.82,2.61-1.81,4.65-1.49,5.77-.4,1.37,1.34,1.48,3.8-.03,5.35Z"/>
      <path class="cls-1" d="M162.67,103.82c-.5.31-1.11.52-1.41.71-2.11,1.3-3.58,2.78-4.81,3.96,1.01,2.34,3.63,7.8,5.66,11.1.61,1,1.17,1.82,1.62,2.28.24.22.42.43.56.66.61,1,.24,1.86-.49,2.31-1,.61-2.7.5-3.79-1.26-1.01-1.65-2.43-3.95-4.31-7.97-1.09-2.29-1.48-3.27-2.05-4.45-1.65,1.7-1.7,2.31-2.69,4.4-.14.29-.31.61-.62.8-.84.52-2.31.36-2.88-.56-.31-.5-.36-1.1-.11-1.73.61-1.59,3.64-5.25,4.81-6.44-.39-.98-2.43-5.85-3.42-7.46-.24-.38-.58-.86-.89-1.36-.61-1-1.01-2.07.22-2.83,1.34-.83,2.69.51,3.85,2.39,1.44,2.34,2.59,5.59,3.07,6.72,1.28-1.1,2.4-1.95,3.66-2.73.5-.31,1.04-.64,1.66-.91,1.47-.7,2.67-.48,3.09.21.4.65.22,1.56-.74,2.15Z"/>
      <path class="cls-1" d="M177.4,115.32c-.41.48-.83.82-1.27,1.05-4.93,2.7-11.07-8.25-13.08-11.93l-.26-.47c-.67-1.22-.26-2.17.49-2.58.91-.5,2.3-.29,3,.98.26.47.54,1.09.89,1.72,2.09,3.83,5.7,9.5,6.97,8.81.12-.06.23-.23.32-.54.69-2.58-2.92-10.04-3.4-11.01-.69-1.36-.27-2.37.52-2.8.95-.52,2.43-.25,3.12,1.01.91,1.66,4.76,13.4,2.71,15.75Z"/>
      <path class="cls-1" d="M192.23,90.86c-.57.27-1.13.14-1.66.4-.2.1-.41.3-.61.59-1.64,2.39-2.92,6.9-3.6,12.33-.36,2.57,1.58,5.24,1.3,6.42-.13.66-.54,1.06-1.02,1.29-1.13.55-2.4.31-3-.95-.18-.36-.39-.91-.54-1.44-.63-2.24-1.48-4.83-2.63-7.22-1.02-2.11-2.28-4.1-3.78-5.57-.1-.1-.22-.24-.3-.41-.39-.81.25-1.87,1.18-2.32,2.15-1.04,3.58,1.62,4.5,3.53.64,1.34,1.04,2.05,1.47,2.94.54-2.41,2.11-8.16,3.67-10.41.56-.82,1.27-1.51,2.24-1.98,1.26-.61,3.01-1,3.79.62.37.77-.15,1.77-1,2.18Z"/>
      <path class="cls-1" d="M213.48,91.82c-.44.58-.87,1.54-1.23,2.18-1.61,2.78-4.55,7.63-7.99,9.08-3.73,1.57-8.45-1.52-10.01-5.21-2.33-5.52,2.16-12.14,7.59-14.43,1.49-.63,3.15-.99,4.55-.79.32.06.54.12.61.28.52,1.25-.61,5.63-3.37,8.46-2.9,2.98-4.65,3.57-6.12,4.48l.23.54c.84,1.99,3.44,4.22,5.72,3.25,2.78-1.17,6.54-8.13,6.79-8.92.1-.92.24-2.1,1.11-2.47.83-.35,2.11.14,2.49,1.05.33.79.08,1.82-.36,2.5ZM202.96,86.68s-.04-.08-.2-.01c-.5.21-1.71.82-3.08,2.32-1.32,1.39-2.09,3.27-2.09,3.27,0,0,2.31-1.46,3.35-2.58,1.17-1.28,1.75-2.35,1.98-2.84.02-.06.05-.12.03-.16Z"/>
      <path class="cls-1" d="M227.89,76.85c-.59.22-1.14.03-1.69.23-.21.08-.43.25-.67.53-1.87,2.22-3.59,6.58-4.81,11.91-.61,2.52,1.05,5.37.65,6.52-.2.65-.64,1-1.15,1.18-1.18.43-2.42.07-2.9-1.24-.14-.38-.3-.95-.4-1.48-.41-2.29-.99-4.96-1.9-7.45-.8-2.2-1.86-4.3-3.21-5.92-.09-.11-.19-.26-.26-.43-.31-.85.43-1.83,1.41-2.19,2.24-.82,3.4,1.97,4.13,3.96.51,1.39.83,2.14,1.17,3.07.77-2.34,2.91-7.91,4.69-10,.63-.76,1.41-1.38,2.43-1.75,1.31-.48,3.1-.7,3.71.99.29.8-.32,1.75-1.21,2.07Z"/>
      <path class="cls-1" d="M267.81,75.76c.33,1.17,1.08,1.85,1.32,2.72.31,1.13-.33,2.33-1.29,2.6-1.91.53-2.67-2.2-3.08-3.67-.65-2.34-1.02-5.18-2-8.69l-.25-.91c-.25-.91-.54-2.09-.49-3.09-.74.21-1.38.24-1.73.34-2.38.66-4.2,1.68-5.71,2.48.33,2.52,1.34,8.5,2.38,12.23.31,1.13.62,2.07.92,2.64.17.28.29.53.36.79.31,1.13-.28,1.85-1.1,2.08-1.13.31-2.74-.27-3.29-2.26-.52-1.86-1.24-4.47-1.95-8.85-.42-2.5-.52-3.55-.74-4.84-2.05,1.18-2.27,1.75-3.79,3.48-.21.25-.47.5-.81.6-.95.27-2.32-.29-2.61-1.33-.16-.56-.04-1.16.37-1.69,1.02-1.36,4.95-4.04,6.4-4.86-.1-1.05-.72-6.29-1.23-8.11-.12-.43-.32-.98-.48-1.55-.31-1.13-.4-2.27.99-2.66,1.52-.42,2.45,1.23,3.04,3.36.74,2.64.95,6.09,1.1,7.31,1.53-.71,2.84-1.21,4.27-1.61.57-.16,1.17-.33,1.85-.42,1.57-.25,2.65.29,2.9,1.02,1.05-.25,2.25.54,2.59,1.75.35,1.26,1.47,8.98,2.07,11.15ZM262.06,52.23c-.12,1.58-.58,2.12-.26,3.76.21.92-.44,1.76-1.18,1.96-.91.25-1.59-.49-1.84-1.4-.4-1.43-.07-3.62.03-4.77.15-1.3.72-1.93,1.29-2.09.82-.23,1.69.37,1.9,1.11.12.43.1.86.07,1.43Z"/>
      <path class="cls-1" d="M274.31,50.56c1,7.77,1.57,16.02,3.47,23.71.28,1.14.77,2.73,1,3.65.37,1.49.19,3.38-1.03,3.69-.44.11-.92.04-1.59-.25-.37-.19-.81-1.38-1.25-3.17-1.45-5.85-3-18.08-3.38-20.35-.45-2.76-.89-5.07-1.17-6.76-.3-1.96-.37-3.15-.17-3.48.23-.38.67-.86,1.28-1.01,1.27-.31,2.15.63,2.48,1.98.12.48.24,1.15.36,2Z"/>
      <path class="cls-1" d="M322.43,68.26c-.62.12-1.24.02-1.72-.57-.48-.55-.81-1.77-1.12-3.31-.49-2.47-.85-5.66-1.31-7.95-.3-1.5-.77-3.2-1.3-3.09-1.1.22-3.33,14.84-3.45,16.29-.1,1.81-.54,2.59-1.25,2.73-2.16.43-2.69-2.22-2.92-3.13-.52-2.37-2.1-10.27-2.89-12.18-.1-.26-.21-.37-.4-.38-.4.08-.63,1.69-1.12,3.8-.57,2.45-1.37,7.39-.75,10.48.09.44.26.82.37,1.39.2,1.01-.87,1.64-1.79,1.83-1.68.33-2.1-.41-2.44-2.08-.55-2.78-.8-7.92-1.44-11.14-.16-.79-.45-1.56-.63-2.49-.24-1.19.15-2.23,1.43-2.49,1.01-.2,2.18.34,2.52,1.38.68-2.11,2.03-5.45,3.18-5.68,1.01-.2,2.36.58,2.96,1.29.59.66,1.46,3.2,2.74,8.22,1.06-3.88,3.04-11.21,5.6-11.72,1.41-.28,3.35,1.4,3.81,2.31.54,1.09,1.26,4.25,1.83,7.12.35,1.77.63,3.59,1,5.45.12.62.65,1.2.79,1.91.23,1.15-.69,1.84-1.7,2.04Z"/>
      <path class="cls-1" d="M338.5,65.89c-.17.3-.46.49-.82.56-.66.12-1.45-.2-1.83-.77-.95.81-2.89,2.25-4.84,2.6-2.17.39-4.06-.97-4.46-3.23-.59-3.32,1.9-7.79,4.91-8.33,1.29-.23,2.7.29,4.01,1.98-.01-.59-.05-1.27-.18-2.02-.32-1.77-1.83-5.89-4.49-5.42-1.2.21-2.26,1.18-2.25,1.46.04.5-.35.84-.88.94-.89.16-1.94-.34-2.11-1.31-.36-1.99,2.4-3.95,5.02-4.42,4.61-.82,7.46,3.88,8.21,8.04.79,4.43-.02,9.1-.28,9.93ZM335.23,41.74c-1.32,2.06-2.56,3.34-4.24,3.64-1.86.33-3.21-.57-3.57-2.56-.52-2.88.75-6.54,4.12-7.14,1.77-.32,4.28.15,4.66,2.28.17.97,0,2.29-.97,3.79ZM332.04,60.19c-1.45.35-2.57,2.75-2.31,4.21.11.62.46.79.95.7,1.15-.21,2.95-1.9,3.6-2.61-.46-.79-1.58-2.42-2.24-2.3ZM332.5,38.99c-.62.11-1.25.41-1.66.94-.41.53-.63,1.35-.53,1.88.02.09.09.26.27.23.71-.13,2.78-2.33,2.71-2.77-.06-.31-.47-.33-.78-.27Z"/>
      <path class="cls-1" d="M356.62,65.43c-1.24.21-2.8-.63-3.03-2.05-.04-.27-.04-.54,0-.82-.31-1.86-1.07-3.93-1.58-6.72-.24-1.42-.44-2.89-.67-4.27-.22-1.33-.47-2.52-.6-2.5-2.55,4.67-3.06,15.56-4.09,16.19-.53.36-.96.53-1.32.59-1.38.23-1.86-1.01-2.09-2.39-.07-.4-.21-1.24-.22-1.6-.35-5.37-1.34-9.4-1.48-14.31-.02-1.18.55-1.64,1.26-1.76.75-.13,1.67.18,2.15.55.27.23.43.66.52,1.24.23,1.38.13,3.49.43,5.31,1.24-3.22,2.94-8.34,4.94-8.67,2.35-.39,3.79,4.11,4.91,10.86.79,4.7.99,5.95,1.13,6.24.47.61,1.05,1.38,1.18,2.17.17,1.02-.48,1.77-1.46,1.93Z"/>
      <path class="cls-1" d="M378.41,53.03c-.57.45-1.21,1.28-1.72,1.82-2.23,2.31-6.25,6.32-9.93,6.9-4,.63-7.84-3.5-8.46-7.46-.93-5.91,5.01-11.27,10.83-12.19,1.6-.25,3.29-.2,4.61.32.29.14.49.24.52.42.21,1.33-1.94,5.32-5.3,7.4-3.53,2.2-5.37,2.35-7.02,2.88l.09.58c.34,2.13,2.33,4.92,4.77,4.53,2.98-.47,8.3-6.32,8.73-7.03.32-.87.73-1.98,1.67-2.13.89-.14,2.01.64,2.17,1.62.13.84-.36,1.79-.95,2.34ZM369.43,45.52s-.01-.09-.19-.06c-.53.08-1.85.38-3.54,1.52-1.62,1.03-2.81,2.68-2.81,2.68,0,0,2.6-.87,3.88-1.71,1.44-.96,2.26-1.86,2.6-2.28.04-.05.07-.1.07-.15Z"/>
      <path class="cls-1" d="M395.01,59.41c-1.25.19-2.79-.67-3.01-2.09-.04-.27-.04-.54.01-.82-.29-1.87-1.01-3.94-1.49-6.74-.22-1.42-.4-2.9-.61-4.28-.21-1.33-.43-2.53-.57-2.51-2.61,4.63-3.27,15.53-4.31,16.14-.54.36-.97.51-1.32.57-1.38.21-1.84-1.04-2.06-2.42-.06-.4-.19-1.25-.2-1.61-.28-5.38-1.22-9.42-1.29-14.33,0-1.18.57-1.63,1.28-1.74.76-.12,1.67.2,2.14.58.26.23.42.67.51,1.24.21,1.38.08,3.49.36,5.32,1.29-3.2,3.05-8.3,5.05-8.61,2.36-.36,3.73,4.16,4.77,10.92.72,4.72.91,5.96,1.05,6.26.46.61,1.03,1.39,1.16,2.19.16,1.02-.5,1.76-1.48,1.91Z"/>
      <path class="cls-1" d="M420.56,53.38c-3.33.53-5.82-3.09-6.32-6.24-.18-1.15-.17-2.52.17-3.81,1.55-5.76,3.71-8.47,6.31-9.06l.22-.04c3.91-.62,7.12,2.93,7.75,6.93,1,6.31-4.17,11.6-8.13,12.22ZM422.42,37.78c-2.76.44-5.03,6.22-4.63,8.75.18,1.11,1.1,3.52,2.79,3.25,1.55-.25,3.65-2.54,4.17-4.17.49-1.49.72-2.94.51-4.27-.2-1.24-1.15-3.83-2.84-3.56Z"/>
      <path class="cls-1" d="M460.24,51.14c-.93.16-1.92-.04-2.47-.86-3.29.55-5.39,1.08-7.51,1.71.48.97.85,2.09,1.04,3.25,1.31,7.85-3.39,19-11.07,20.28-4.26.71-9.56-1.78-10.4-6.79-.38-2.26.14-4.86,1.84-7.56,4.01-6.28,7.72-8.41,13.17-10.73-1.69-1.41-3.75-1.7-5.79-1.36-1.38.23-2.71.73-3.87,1.42-.71.39-1.39.96-2.19,1.1-.84.14-2.12-.38-2.28-1.35-.14-.84.52-1.78,1.44-2.29-.33-.63-.52-1.19-.62-1.77-.52-3.11,1.63-5.79,3.18-8.52-.76-.47-1.13-1.04-1.21-1.53-.14-.84.52-1.55,1.36-1.69.67-.11,1.21.39,1.96.27.98-.16,2.83-.79,4.79-1.39,1-.3,3.94-1.25,5.72-1.55.93-.16,2.64-.03,2.85,1.21.12.71-.52,1.55-2.03,1.8-.22.04-.45.03-.76.08-1.55.26-2.95.9-4.47,1.39,1.35.96,2.04,2.08,2.23,3.23.33,1.95-.81,4.15-2.56,6.22,2.42.55,4.02,1.66,5.68,3.43,1.18-.33,3.75-1.04,6.37-1.48,1.51-.25,7.69-1.2,8.11,1.29.16.98-1.13,1.97-2.51,2.2ZM446.81,53.25c-1.85.67-8.54,3.53-11.99,9.58-1.19,2.16-1.68,3.88-1.45,5.26.44,2.62,3.69,4.35,6.27,3.92,5.19-.87,9.17-9.56,8.09-16-.16-.98-.46-1.93-.92-2.77ZM438.81,37.84c-1.17,1.47-2.04,2.8-2.63,3.91-.58,1.19-1.14,2.47-.92,3.76.04.27.14.57.24.87,2.08-.9,6.49-3.73,6.08-6.22-.39-1.81-2.15-2.24-2.76-2.32Z"/>
      <path class="cls-1" d="M493.32,35.02c.23,1.19.92,1.93,1.09,2.81.22,1.15-.52,2.3-1.49,2.49-1.94.37-2.48-2.41-2.77-3.91-.46-2.39-.59-5.25-1.28-8.83l-.18-.93c-.18-.93-.36-2.13-.23-3.12-.75.14-1.4.13-1.75.2-2.43.47-4.33,1.34-5.89,2,.12,2.54.64,8.58,1.37,12.38.22,1.15.45,2.11.7,2.71.15.29.24.55.29.81.22,1.15-.43,1.82-1.27,1.98-1.15.22-2.71-.49-3.1-2.52-.37-1.9-.87-4.55-1.22-8.97-.21-2.53-.23-3.58-.34-4.88-2.14,1.01-2.4,1.56-4.06,3.16-.23.23-.51.46-.86.53-.97.19-2.29-.48-2.49-1.54-.11-.57.05-1.16.51-1.66,1.13-1.27,5.26-3.62,6.78-4.33-.02-1.05-.21-6.33-.57-8.18-.08-.44-.24-1.01-.35-1.58-.22-1.15-.21-2.3,1.2-2.57,1.55-.3,2.34,1.43,2.75,3.59.52,2.7.45,6.15.5,7.37,1.58-.58,2.93-.98,4.39-1.26.57-.11,1.19-.23,1.87-.27,1.58-.12,2.62.5,2.81,1.25,1.07-.16,2.2.72,2.44,1.96.25,1.28.73,9.07,1.16,11.28ZM489.51,11.1c-.25,1.56-.75,2.07-.57,3.73.13.94-.59,1.72-1.34,1.86-.93.18-1.54-.62-1.72-1.55-.28-1.46.22-3.62.42-4.75.26-1.29.88-1.86,1.45-1.97.84-.16,1.66.51,1.8,1.26.08.44.03.87-.05,1.43Z"/>
      <path class="cls-1" d="M501.86,9.9c.67,7.81.89,16.08,2.48,23.84.23,1.15.66,2.76.85,3.69.3,1.5.05,3.39-1.19,3.64-.44.09-.92,0-1.58-.32-.36-.2-.75-1.41-1.12-3.22-1.21-5.91-2.24-18.19-2.53-20.47-.34-2.78-.67-5.1-.88-6.8-.22-1.98-.23-3.17-.02-3.49.25-.37.7-.83,1.32-.96,1.28-.26,2.12.72,2.4,2.08.1.48.19,1.16.27,2.01Z"/>
      <path class="cls-1" d="M517.87,33.42c-.46.65-1.45,1.83-1.83,2.65-.27.66-.75.99-1.24,1.09-.92.2-1.92-.37-2.21-1.5-.5.02-1.18-.12-1.61-.62-.07-.12-.35-1.21-.69-2.8-.57-2.64-1.31-6.76-1.58-9.92-.53-.35-.8-.75-.9-1.19-.16-.75.21-1.61.86-2.21.03-1.16.13-5.6-.54-8.72-.12-.57-.61-1.11-.79-1.95-.24-1.1.29-1.86,1.04-2.02,1.14-.25,2.83.73,3.41,3.46.55,2.55.24,5.19.29,7.81,2.08-.4,7.7-1.01,10.45,2.82.26.36.39.75.48,1.18.75,3.52-3.29,9.36-5.17,11.92ZM513.03,20.98l-.79.17c0,2.53.29,5,.82,7.46.3,1.41.69,2.8,1.12,4.18,1.72-2.07,5.84-7.51,5.27-10.2-.49-2.29-4.62-2-6.42-1.61Z"/>
      <path class="cls-1" d="M538.13,30.53c-.16.31-.44.51-.79.59-.66.15-1.46-.13-1.86-.68-.91.85-2.78,2.39-4.71,2.83-2.15.49-4.1-.78-4.61-3.01-.75-3.29,1.53-7.87,4.52-8.55,1.27-.29,2.71.17,4.1,1.79-.04-.59-.1-1.27-.27-2.01-.4-1.76-2.1-5.8-4.73-5.2-1.19.27-2.2,1.29-2.18,1.56.07.49-.31.86-.84.98-.88.2-1.95-.25-2.17-1.21-.45-1.97,2.22-4.06,4.81-4.65,4.56-1.04,7.63,3.53,8.57,7.65,1,4.39.41,9.09.18,9.93ZM531.42,25.13c-1.43.42-2.44,2.86-2.11,4.31.14.61.5.76.98.65,1.14-.26,2.86-2.03,3.48-2.77-.5-.76-1.69-2.34-2.34-2.19Z"/>
      <path class="cls-1" d="M568.61,22.03c-.36.23-.81.66-1.53,1.12-1.07.73-2.25,1.2-3.48,1.51-5.64,1.39-12.45-1.06-17.13-3.33.14,1.31.35,2.74.7,4.14.24.96.52,1.91.96,2.78.28.58.61,1.15.75,1.72.24.96-.11,1.83-1.81,2.25-1.31.32-2.48-2.35-3.43-6.2-2.2-8.91-3.15-24.44-1.62-25.56.27-.21.57-.33.83-.39,1.18-.29,2.27.55,2.55,1.69.05.22.11.44-.11,1.83-.45,2.89-.12,7.4.16,10.43,2.75-1.65,12.17-7.22,14.23-7.72.83-.21,1.62-.03,1.87,1.02.15.61,0,1.3-.44,1.78-.44.48-4.02,2.1-4.68,2.45-2.38,1.24-5.67,3.11-9.65,5.99,1.51.88,5.16,2.71,10.8,3.78,2.38.43,4.2.31,5.51-.01,2.45-.6,3.27-1.96,3.32-2.12.23-.75.74-1.15,1.3-1.29,1-.25,2.27.37,2.52,1.37.2.79-.17,1.76-1.63,2.77Z"/>
      <path class="cls-1" d="M586.32,11.87c-.52.51-1.07,1.41-1.52,1.99-1.97,2.54-5.54,6.94-9.15,7.91-3.91,1.05-8.17-2.65-9.21-6.52-1.55-5.78,3.79-11.74,9.48-13.27,1.56-.42,3.25-.55,4.61-.17.31.1.51.19.56.36.35,1.3-1.37,5.49-4.49,7.92-3.27,2.56-5.09,2.9-6.67,3.61l.15.56c.56,2.09,2.83,4.64,5.22,4,2.91-.78,7.58-7.16,7.94-7.91.22-.9.52-2.05,1.43-2.29.87-.23,2.07.42,2.33,1.38.22.83-.17,1.82-.7,2.42ZM576.6,5.35s-.02-.09-.2-.04c-.52.14-1.8.58-3.36,1.88-1.5,1.19-2.51,2.96-2.51,2.96,0,0,2.49-1.14,3.67-2.11,1.33-1.1,2.05-2.09,2.35-2.54.03-.06.06-.11.05-.15Z"/>
    </g>
  </g>
</svg>