<?xml version="1.0" encoding="UTF-8"?>
<svg id="Layer_2" data-name="Layer 2" xmlns="http://www.w3.org/2000/svg" viewBox="0 0 896.46 290.57">
  <defs>
    <style>
      .cls-1 {
        fill: #fff;
      }

      .cls-1, .cls-2 {
        stroke: #231f20;
        stroke-miterlimit: 10;
      }

      .cls-2 {
        fill: #0a0203;
      }
    </style>
  </defs>
  <g id="Earth">
    <g id="Earth-eyes">
      <g id="Right-eye">
        <path class="cls-2" d="M660.26,285.32l217.89,4.74,16.92-142.42c2.95-6.32-2.34-11.83-1.77-17.91.4-5.78-1.17-11.22-2.95-16.61-1.47-4.64-1.6-9.81-5.35-13.55-5.54-7.73-11.95-14.48-20.15-19.55-4.34-2.68-7.86-6.49-11.23-10.4-9.6-11.14-21.62-15.46-36.19-12.77-7.69,1.42-15.08,4.22-22.85,5.16-27.37,3.34-48.99,17.31-67.25,36.94-5.8,6.23-10.27,13.85-10.82,22.93-6.64,14.03-23.11,52.68-28.72,67.13l-27.54,96.31Z"/>
        <path class="cls-1" d="M885.84,152.9c-.07,13.63-.91,27.2-3.44,40.62-1.92,3.85-1.88,8.25-3.82,12.22-9.29,18.94-38.1,24.18-53.66,15.42-2.43-1.36-4.2-3.37-5.53-5.75-5.3-9.57-11.31-18.82-15.1-29.11-2.24-6.09-6.92-10.78-8.27-17.57-.81-4.06-2.13-8.14-2.47-12.4-1.19-15.07-1.39-30.44,3.31-44.64,3.36-10.16,6.43-22.43,17.39-27.71,7.04-3.39,13.81-8.33,22.78-7.62,8.21.64,14.81,3.91,20.96,8.7,14.33,11.16,20.95,26.67,24.13,43.95,1.46,7.92,2.48,15.92,3.7,23.89Z"/>
      </g>
      <g id="Left-eye">
        <path class="cls-2" d="M163.3.94c-11-1.35-22.54.66-33.63,2.48-21.19,3.49-40.24,10.61-56.22,26.96-14.35,14.69-26.36,30.09-33.97,49.03l-10,21.23-19.58,107.18C4.07,229.18-.69,250.67.77,273.06l242.5,13.14c1.63-8.39,2.62-16.97,5.06-25.12,6.84-22.89,10.84-45.83,10.93-70.04.06-17.15,3.8-64.8-.77-81.57,1.25-5.85,1.42-11.86-1.61-17.14-5.7-9.92-8.68-20.89-12.16-31.57-6.78-20.82-19.79-35.78-39.08-45.51-5.49-2.77-36.64-11.9-42.33-14.28Z"/>
        <path class="cls-1" d="M230.97,108.21c.62,14.21-4.36,27.03-10.1,39.54-2.22,4.83-6.01,8.05-11.54,10.32-19.37,7.93-35.86.76-52.97-7.38-24.8-11.81-38.01-33.37-50.17-56.12-6.24-11.67-4.8-24.05-2.15-36.16,1.83-8.39,8.27-13.06,16.18-16.16,9.47-3.71,18.77-7.88,27.99-12.18,23.93-11.16,60.73,6.67,69.85,31.38,3.31,8.97,7.79,17.56,10.52,26.84,1.93,6.55,2.57,13.19,2.38,19.93Z"/>
      </g>
    </g>
  </g>
</svg>