<?xml version="1.0" encoding="UTF-8"?><svg id="Layer_2" xmlns="http://www.w3.org/2000/svg" width="1688.67" height="871.81" viewBox="0 0 1688.67 871.81"><defs><style>.cls-1{fill:#00b1dc;stroke-width:0px;}.cls-2{fill:none;stroke:#231f20;stroke-linecap:round;stroke-linejoin:round;stroke-width:4.6px;}</style></defs><g id="Earth"><g id="Sea"><path class="cls-1" d="M1535.31,143.04c.07.05.16.11.28.18-.1-.07-.2-.13-.28-.18ZM1536.31,143.68c-.19-.16-.4-.28-.61-.4-.01-.01-.02-.01-.03-.01.17.11.38.25.64.41ZM1536.42,143.75c7.56,4.85,46.25,29.54,51.28,32.85,58.87,38.61,91.22,153.07,97.82,177.15l.85,515.76-1684.07-.58.29-377.22C207.33,147.97,688.83-5.95,1069.55,2.64c124.44,1.73,372.99,84.97,372.12,85.12,34.85,9.8,65.67,32.94,94.75,55.99Z"/><path class="cls-1" d="M1535.7,143.28c.21.12.42.24.61.4-.26-.16-.47-.3-.64-.41.01,0,.02,0,.03.01Z"/><path class="cls-1" d="M1535.59,143.22c-.12-.07-.21-.13-.28-.18.08.05.18.11.28.18Z"/><path class="cls-2" d="M1536.42,143.75c-29.08-23.05-59.9-46.19-94.75-55.99.87-.15-247.68-83.39-372.12-85.12C688.83-5.95,207.33,147.97,2.59,491.71l-.29,377.22,1684.07.58-.85-515.76"/><path class="cls-2" d="M1535.67,143.27s.02,0,.03.01c.21.12.42.24.61.4"/><path class="cls-2" d="M1535.14,142.93h.01l.02.02s.03.02.06.04c.01.01.02.01.04.03.02.01.03.01.04.02.08.05.18.11.28.18"/><path class="cls-2" d="M1535.59,143.22c-.12-.07-.21-.13-.28-.18"/><path class="cls-2" d="M1535.59,143.22s.05.03.08.05"/><path class="cls-2" d="M1536.31,143.68c-.26-.16-.47-.3-.64-.41"/><path class="cls-2" d="M1536.31,143.68s.07.05.11.07"/><path class="cls-2" d="M1685.52,353.75c-6.6-24.08-38.95-138.54-97.82-177.15-5.03-3.31-43.72-28-51.28-32.85"/></g></g></svg>