<?xml version="1.0" encoding="UTF-8"?>
<svg id="Layer_2" data-name="Layer 2" xmlns="http://www.w3.org/2000/svg" version="1.1" viewBox="0 0 65.8 105.6">
  <defs>
    <style>
      .cls-1 {
        fill: #fff;
        stroke-width: 4.6px;
      }

      .cls-1, .cls-2 {
        stroke: #231f20;
        stroke-miterlimit: 10;
      }

      .cls-2 {
        fill: #0a0203;
      }

      .cls-3 {
        fill: #a1cf6d;
      }

      .cls-3, .cls-4 {
        stroke-width: 0px;
      }

      .cls-4 {
        fill: #231f20;
      }
    </style>
  </defs>
  <g id="Figures">
    <g id="Creatures">
      <g id="Creature_1" data-name="Creature 1">
        <g>
          <path class="cls-3" d="M28.4,49.2c-4-.6-8.4-.3-11.9,1.9-3.4,2.2-5.6,6.7-4.3,10.5l-.9,2.7c-4.9-.2-8.9,4.9-8.9,9.9s2.1,12.3,10.1,12.3,1.1,5.4,4,7.2l1.5-.4c.6,3.5,3,6.6,6.1,8.3,3.1,1.7,6.9,2,10.3,1.1,1.4-.4,2.3-.9,3.4-1.8.2-.1.5-.5.7-.6,0,0,.1,0,.2,0,.8.4,4.7,2,7,1,2.7-1.1,4.4-3.6,6-6,1.6-2.6,3.1-5.4,3.4-8.5l1.9,1.4c1.5,1.4,4.2.5,5.2-1.2s1-3.9.9-6c-.1-2.2-.4-4.6-2-6.1-2-2-5.2-1.6-8-1.2l2.5-3.3c1.7-2.3,1.6-5.7,0-7.9s-5-3.1-7.6-2.1l.3-.3c.4-3.5.6-7.3-1.5-10.1-2.4-3.1-6.8-3.7-10.7-3.1-2.5.4-5.1,1.1-6.9,2.8-1.9,1.7-2.9,4.5-2,6.9"/>
          <path class="cls-4" d="M28.4,46.7c-4.9-.6-10.2,0-14.3,3.1-3.7,2.9-5.8,8-4.3,12.5v-1.3c-.3.9-.6,1.8-.9,2.7l2.4-1.8c-4.4,0-8.2,2.9-10.1,6.7-1.5,3.2-1.6,6.8-.8,10.2.8,3.2,2.5,6.2,5.1,8.1,1.4,1,3.1,1.7,4.9,1.9.6,0,1.1.1,1.7.2-.1,0,.6,0,.6,0,0,0-.4,0-.5-.1-.2-.1-.2-.2-.4-.4.2.2,0,.1,0,0,0,.3.2.7.3,1.1,0,0,0,.5,0,0,0,.2,0,.4,0,.6,0,.5.1,1,.2,1.5.2.9.5,1.8,1,2.5.8,1.2,2.1,2.2,3.6,1.9.5,0,1-.3,1.5-.4l-3.1-1.8c1,5.2,5,9.3,10,10.9,2.7.9,5.7.9,8.5.4,1.2-.2,2.5-.6,3.6-1.3,1-.6,1.8-1.4,2.6-2.1l-1.8.7h.2s-1.3-.4-1.3-.4c1.8.8,3.7,1.4,5.7,1.6,2.7.2,5-.9,6.9-2.7s3.3-4,4.5-6.2c1.5-2.6,2.6-5.4,2.9-8.4l-3.8,2.2c.6.4,1.3.9,1.9,1.3-.6-.4.3.2.5.4.3.2.7.4,1.1.5.9.2,1.9.3,2.8,0,3.9-.8,5.5-4.6,5.6-8.2,0-3.4-.2-7.5-2.8-10-2.8-2.8-6.9-2.4-10.4-1.9l2.8,3.7c2.1-2.8,4.4-5.3,4.1-9.1-.5-5.9-6.5-9.9-12.1-7.9l2.4,4.2c1.5-1.2,1.3-3.8,1.3-5.6,0-2.1-.3-4.2-1.1-6.2-1.7-3.8-5.4-5.6-9.3-6.1s-8.2.2-11.5,2.3c-3.5,2.2-5.9,6.5-4.4,10.6.5,1.3,1.7,2.1,3.1,1.8,1.2-.3,2.2-1.8,1.8-3.1-.8-2.3.8-4.3,2.8-5.4,2.2-1.2,5-1.5,7.5-1.3,2.1.2,4.3,1,5.4,3,1.2,2.3.8,5.4.5,7.9l.7-1.8-.3.3c-1.9,1.6.1,5,2.4,4.2,3.1-1.1,6.4,1.1,5.7,4.6-.4,1.9-2.2,3.6-3.3,5-.6.8-.3,2.1.2,2.8.7.9,1.6,1.1,2.6.9,1.7-.2,4.2-.7,5.6.6,1.4,1.3,1.3,4.2,1.3,6s0,2.2-.7,3.1c-.2.2-.4.4-.7.5,0,0-.8.1-.5.1s-.4-.2-.2,0c.2.2-.3-.2-.5-.4-.2-.1-.3-.2-.5-.3l-1.4-1c-1.7-1.2-3.6.5-3.8,2.2-.2,2.2-1.2,4.2-2.3,6.1-1,1.8-2.1,3.6-3.7,5-1.3,1.2-2.4,1.5-4.1,1.1-.8-.2-1.5-.4-2.3-.7-.1,0-.3,0-.4-.2.3.1.4.2.2,0-.6-.3-1.1-.4-1.8-.3-1,.2-1.5.8-2.2,1.4-.7.5-1.4.9-2.2,1.1-2,.5-4.2.6-6.2,0-3.7-1-6.4-3.8-7.1-7.6-.2-1.3-1.9-2.1-3.1-1.8l-1.5.4,1.9.2c.1,0,0,0,0,0,0,0-.1-.2-.2-.3,0,0,.1.3,0,0s-.2-.6-.2-.8c0-.1,0-.2,0-.4,0-.4,0,.3,0,0-.2-1.3-.2-2.7-1-3.8-1.6-2.7-5-1.7-7.1-2.8-1.8-1-3-2.8-3.6-4.7-.2-.5-.3-1-.4-1.6,0-.2,0-.5-.1-.7,0-.1,0-.2,0-.4,0,.5,0,0,0-.1,0-1.1-.1-2.2.1-3.3.7-2.9,3.1-5.6,6.2-5.6,1.1,0,2.1-.8,2.4-1.8.4-1.2,1.1-2.7.9-4-.4-2.1-.3-3.7.9-5.6,2.8-4.1,8.4-4.3,12.8-3.7,1.3.2,2.5-1.3,2.5-2.5s-1.1-2.3-2.5-2.5h0Z"/>
        </g>
        <g>
          <path class="cls-1" d="M18.1,63.5c-2,4.6-1.7,11.6-1.8,15.5,0,1.2.9,2.6,2,3.1.9.4,1.7.5,2.8.5,2.4,0,4.6-1.3,5.7-3.5.6-1.2.9-2.5,1.3-3.6.4-1.7,1-4.2,1.2-6.8-3.5-2.5-7.1-4.5-11.1-5.2h0Z"/>
          <path class="cls-2" d="M26.4,88.4c-.6,0-1,.6-.9,1.2.1.7.5,1.6,1.1,2.4,1.5,1.9,3.7,2.2,4.9,2.2.4,0,.9-.2,1.1-.5,1.9-2.4,4.6-4.3,7.7-5.8.5-.2.2-1-.3-.9-4.5.5-9.1.9-13.6,1.4h0Z"/>
          <path class="cls-3" d="M25.6,72.9c.3,2.5-3,3.7-3.6.9-.5-1.3.6-2.9,1.9-3,.8.4,1.9,1,1.7,2h0Z"/>
        </g>
        <g>
          <path class="cls-1" d="M45.2,64.5c2,4.5,1.7,11.6,1.8,15.5,0,1.2-.9,2.6-2,3.1-1.1.6-2.3.7-3.4.3-.5-.2-1-.2-1.6-.3-2.7-.5-4-4.2-4.7-6.5-.4-1.7-1-4.2-1.2-6.8,3.5-2.5,7.1-4.5,11.1-5.2h0Z"/>
          <path class="cls-3" d="M37.8,73.8c-.3,2.5,3,3.7,3.6.9.5-1.3-.6-2.9-1.9-3-.8.4-1.9,1-1.7,2h0Z"/>
        </g>
        <animateMotion accumulate="none" additive="replace" calcMode="paced" dur="3s" fill="remove" path="M 0 0 V -20 Z" repeatCount="indefinite" restart="always"/>
      </g>
    </g>
  </g>
</svg>