<?xml version="1.0" encoding="UTF-8"?><svg id="Layer_2" xmlns="http://www.w3.org/2000/svg" width="416.63" height="332.03" viewBox="0 0 416.63 332.03"><defs><style>.cls-1{fill:#a1cf6d;stroke:#231f20;stroke-miterlimit:10;stroke-width:4.6px;}</style></defs><g id="Earth"><path class="cls-1" d="M345.6,112.12c-.42,7.02-9.68,7.95-5.89,16.05.88,1.8.45,4.66-1.92,5.6-11.35,6.48,7.58,22.36-9.69,25.81-2.96,52.74,71.73,101.7-14.86,149.72-5.05.64-46.3,18.52-46.3,18.52-13.15,7.75-32.55-10.28-43.22-15.79-16.68-8.62-21.87-33-31.2-50.46-15.68-16.63-27.73-42.22-53.8-41.69-7.79-4.77-18.38-12.16-27.53-7.71C57.94,212.78-3.79,119.54,2.78,72.09,20.45,28.28,455.81-38.04,411.11,34.72c0,0,3.97,8.24-.31,12.7h0c-7.47,6.95-18.48,13.53-27.26,19.61-5.69,5.11-4.03,18.06-13.47,17.8-3.4-.4-3.92,1.79-4.54,4.23-4.89,8.97-12.94,15.68-19.92,23.06Z"/></g></svg>