<?xml version="1.0" encoding="UTF-8"?>
<svg id="Layer_2" data-name="Layer 2" xmlns="http://www.w3.org/2000/svg" viewBox="0 0 1683.78 783.6">
  <defs>
    <style>
      .cls-1 {
        fill: #c77161;
        opacity: .38;
        stroke-width: 0px;
      }
    </style>
  </defs>
  <g id="Background">
    <path id="Wave_4" data-name="Wave 4" class="cls-1" d="M.29,688.91C205.03,345.17,686.53,191.25,1067.25,199.84c124.44,1.73,372.99,84.97,372.12,85.12,34.85,9.8,65.67,32.94,94.75,55.99,7.56,4.85,46.25,29.54,51.28,32.85,58.87,38.61,91.22,153.07,97.82,177.15l.38,232.44c.06.07.12.14.18.22V164.84l-6.24-6.38C1618.25,103.88,1424.23,0,1195.54,0c-336.22,0-446.34,169.43-842.11,161.06C133.3,156.41,39.72,92,0,34.97v748.63c.07-.09.15-.18.22-.27l.07-94.43Z"/>
  </g>
</svg>