<?xml version="1.0" encoding="UTF-8"?><svg id="Layer_2" xmlns="http://www.w3.org/2000/svg" width="1683.78" height="672.91" viewBox="0 0 1683.78 672.91"><defs><style>.cls-1{fill:#c67161;opacity:.38;stroke-width:0px;}</style></defs><g id="Background"><path class="cls-1" d="M.06,672.82c.43-.64.87-1.28,1.3-1.91,1.77-2.62,3.57-5.24,5.37-7.84.64-.92,21.18-28.95,23.06-31.38.61-.79,6.68-8.52,9.14-11.57.25-.31,34.59-40.09,35.25-40.8,5.43-5.88,10.95-11.69,16.57-17.44.63-.64,25.61-25.15,28.31-27.68.61-.57,27.17-24.44,29.98-26.84.44-.38,14.27-12.04,20.86-17.39.45-.36,2.87-2.32,3.63-2.94,53.55-45.42,115.09-83.72,179.03-116.74,106.7-56.57,223.39-99.17,340.69-127.67,82.66-31.99,297.86-63.37,361.45-42.99,4.2.05,8.39.12,12.56.21.97.01,13.04.44,15.13.57,96,5.64,248.58,50.06,319.04,72.16.77.24,38,12.39,37.95,12.39,0,0,0,0,0,0,34.85,9.8,65.67,32.93,94.75,55.98-.4-.32-.87-.52-1.28-.82,1.87,1.52,3.73,3.04,5.58,4.56,15.2,11.87,26.05,21.22,28.18,23.06.06.05.12.1.16.14,0,0,0,0,0,0,.15.13.23.2.23.2,46.73,40.17,84.97,86.18,116.79,136.22V164.84l-6.24-6.38C1618.25,103.88,1424.23,0,1195.54,0c-336.22,0-446.34,169.43-842.11,161.06C133.3,156.41,39.72,92,0,34.97v637.93s.04-.05.06-.08Z"/></g></svg>